<?xml version='1.0' encoding='utf-8'?>
<!DOCTYPE svg PUBLIC '-//W3C//DTD SVG 1.1//EN' 'http://www.w3.org/Graphics/SVG/1.1/DTD/svg11.dtd'>
<svg version="1.1" xmlns="http://www.w3.org/2000/svg" viewBox="0 0 512 512" xmlns:xlink="http://www.w3.org/1999/xlink" enable-background="new 0 0 512 512">
  <g>
    <g>
      <path d="m203.2,145.7c-45.2,0-82.1,36.8-82.1,82.1 0,10.3-7.6,19.7-17.8,21-29.4,3.8-51.5,28.9-51.5,58.5 0,32.6 26.5,59.1 59.1,59.1h290.1c32.6,0 59.1-26.5 59.1-59.1 0-32.6-25.3-59.1-59.1-59.1-15.6,0-23.2-4.8-25.5-17.3-5-26.1-26.3-45.2-52.8-45.2-8.3,0-16.3,1.9-23.8,5.6-9.4,4.7-20.7,1.5-26.3-7.4-15.2-23.9-41.1-38.2-69.4-38.2zm197.9,261.5h-290.2c-55.1,0-99.9-44.8-99.9-99.9 0-44.3 29.3-82.7 70.5-95.4 8.1-60.6 59.6-107 121.8-107 36.6,0 70.6,16 93.8,43.6 8.3-2.4 16.9-3.6 25.6-3.6 40.9,0 76,25.7 89,63 50.1,5.3 89.3,47.9 89.3,99.4-5.68434e-14,55-44.8,99.9-99.9,99.9z"/>
    </g>
  </g>
</svg>
